<svg width="12" height="16" viewBox="0 0 12 16" fill="none" xmlns="http://www.w3.org/2000/svg">
<path fill-rule="evenodd" clip-rule="evenodd" d="M3.02267 1.1C3.02267 0.768629 3.29333 0.5 3.6272 0.5H11.3955C11.7293 0.5 12 0.768629 12 1.1V12.5C12 12.8314 11.7293 13.1 11.3955 13.1H8.97733V14.9C8.97733 15.2314 8.70667 15.5 8.3728 15.5H0.604534C0.270659 15.5 0 15.2314 0 14.9V3.5C0 3.16863 0.270659 2.9 0.604534 2.9H3.02267V1.1ZM8.97733 11.9V3.5C8.97733 3.16863 8.70667 2.9 8.3728 2.9H4.23174V1.7H10.7909V11.9H8.97733Z" fill="#289CFF"/>
</svg>
