<svg width="22" height="20" viewBox="0 0 22 20" fill="none" xmlns="http://www.w3.org/2000/svg">
<path fill-rule="evenodd" clip-rule="evenodd" d="M18.0798 18.4884C18.177 18.5851 18.3088 18.6395 18.4462 18.6395C18.5837 18.6395 18.7155 18.5851 18.8127 18.4884C20.7813 16.5291 22 13.8208 22 10.8303C22 4.84887 17.1279 0 11.1179 0C5.10797 0 0.235863 4.84887 0.235863 10.8303C0.235863 12.6475 0.685918 14.3614 1.48155 15.8663L0.207083 16.8186C0.059032 16.9292 -0.0184748 17.1101 0.0037585 17.293C0.0259918 17.4759 0.144588 17.6331 0.314872 17.7054L5.62206 19.9586C5.79234 20.0309 5.98845 20.0073 6.1365 19.8967C6.28455 19.7861 6.36206 19.6053 6.33983 19.4223L5.6469 13.7215C5.62467 13.5385 5.50608 13.3813 5.33579 13.309C5.16551 13.2367 4.9694 13.2603 4.82135 13.371L3.5286 14.3369C3.03079 13.2716 2.7528 12.0838 2.7528 10.8303C2.7528 6.23232 6.49798 2.50496 11.1179 2.50496C15.7379 2.50496 19.4831 6.23232 19.4831 10.8303C19.4831 13.1294 18.5474 15.21 17.033 16.7171C16.8307 16.9185 16.8307 17.2451 17.033 17.4465L18.0798 18.4884ZM0.518202 17.231L2.15328 16.0093C1.26354 14.4873 0.754057 12.718 0.754057 10.8303C0.754057 5.1337 5.39416 0.515727 11.1179 0.515727C11.6881 0.515727 12.2475 0.561547 12.7926 0.649688C12.2477 0.561637 11.6886 0.515871 11.1188 0.515871C5.39502 0.515871 0.754916 5.13385 0.754916 10.8304C0.754916 12.7181 1.2644 14.4874 2.15414 16.0095L0.519061 17.2312L5.82536 19.484L0.518202 17.231ZM3.34756 15.117C3.34746 15.1168 3.34767 15.1172 3.34756 15.117V15.117ZM12.6018 2.11203C16.802 2.81456 20.0021 6.45055 20.0021 10.8304C20.0021 13.2718 19.0079 15.4821 17.4003 17.082L18.4466 18.1234C18.4465 18.1235 18.4467 18.1233 18.4466 18.1234L17.3994 17.0818C19.007 15.4819 20.0013 13.2717 20.0013 10.8303C20.0013 6.4507 16.8016 2.81491 12.6018 2.11203Z" fill="#404040" fill-opacity="0.5"/>
<path fill-rule="evenodd" clip-rule="evenodd" d="M15.3872 6.08558C15.2073 5.86406 14.881 5.8296 14.6584 6.00863L10.1125 9.66494C10.0855 9.68295 10.0602 9.70348 10.0369 9.72625C9.93889 9.81156 9.87653 9.9307 9.86274 10.0601C9.85903 10.0948 9.85891 10.1296 9.86223 10.1639L8.86637 15.8096C8.81689 16.0901 9.00528 16.3575 9.28716 16.4067L10.7454 16.6615C10.8808 16.6852 11.02 16.6543 11.1326 16.5758C11.2451 16.4972 11.3216 16.3774 11.3454 16.2427L12.2393 11.1751L16.2405 7.9569C16.3473 7.87093 16.4155 7.74622 16.43 7.6102C16.4445 7.47418 16.4042 7.33801 16.3178 7.23162L15.3872 6.08558ZM10.4035 10.094L10.4044 10.0941L14.9845 6.41025L10.4035 10.094ZM9.37762 15.8989L10.3945 10.1339L10.3789 10.1146L10.4011 10.0968L10.4016 10.0937L10.4008 10.0935L10.4002 10.0966L10.378 10.1145L10.3937 10.1337L9.37676 15.8988L9.37762 15.8989Z" fill="#404040" fill-opacity="0.5"/>
</svg>
