<svg width="22" height="20" viewBox="0 0 22 20" fill="none" xmlns="http://www.w3.org/2000/svg">
<path d="M21.9351 3.63636H0.064908C0.146693 2.45444 0.331529 1.65887 0.749262 1.06507C1.49852 0 2.70444 0 5.11628 0H16.8837C19.2956 0 20.5015 0 21.2507 1.06507C21.6685 1.65887 21.8533 2.45444 21.9351 3.63636Z" fill="#404040" fill-opacity="0.5"/>
<path fill-rule="evenodd" clip-rule="evenodd" d="M0 7.27273H22V12.7273C22 16.1557 22 17.8699 21.2507 18.9349C20.5015 20 19.2956 20 16.8837 20H5.11628C2.70444 20 1.49852 20 0.749262 18.9349C0 17.8699 0 16.1557 0 12.7273V7.27273ZM2.81395 10.1818C2.67267 10.1818 2.55814 10.3446 2.55814 10.5455V14.1818C2.55814 14.3826 2.67267 14.5455 2.81395 14.5455H6.65116C6.79244 14.5455 6.90698 14.3826 6.90698 14.1818V10.5455C6.90698 10.3446 6.79244 10.1818 6.65116 10.1818H2.81395Z" fill="#404040" fill-opacity="0.5"/>
</svg>
