<svg width="40" height="40" viewBox="0 0 40 40" fill="none" xmlns="http://www.w3.org/2000/svg">
<path d="M35.3516 7.77014C36.2891 8.99849 37.0828 10.333 37.7165 11.7468L19.7397 25.1768L12.2267 20.4039V14.6618L19.7397 19.4347L35.3516 7.77014Z" fill="#21A038"/>
<path d="M4.55927 19.9995C4.55927 19.7418 4.56547 19.4858 4.57787 19.2314L0.0247968 19.0052C0.00929965 19.3351 5.50217e-06 19.6681 5.50217e-06 20.0041C-0.0019317 22.6299 0.507688 25.2301 1.49964 27.6557C2.49159 30.0815 3.94634 32.2847 5.78045 34.1393L9.01005 30.8678C7.59822 29.4427 6.47822 27.7489 5.7144 25.8838C4.95058 24.0186 4.55802 22.0188 4.55927 19.9995Z" fill="url(#paint0_linear_2337_152)"/>
<path d="M19.7356 4.6203C19.9898 4.6203 20.2423 4.62973 20.4934 4.64229L20.7212 0.0263801C20.3948 0.0106744 20.0662 0.00282245 19.7356 0.00282245C17.1435 -0.000381132 14.5764 0.515352 12.1816 1.52041C9.78671 2.52546 7.61136 4.00005 5.7804 5.85949L9.01 9.13256C10.4162 7.70126 12.0877 6.56577 13.9284 5.7914C15.7691 5.01703 17.7426 4.61903 19.7356 4.6203Z" fill="url(#paint1_linear_2337_152)"/>
<path d="M19.7357 35.3799C19.4816 35.3799 19.2289 35.3799 18.9764 35.3595L18.7486 39.9738C19.0761 39.9906 19.4052 39.999 19.7357 39.999C22.3268 40.0017 24.8926 39.4856 27.2862 38.4803C29.6798 37.475 31.8537 36.0001 33.6833 34.1407L30.4599 30.8693C29.0534 32.2998 27.3821 33.4346 25.5418 34.2087C23.7014 34.9828 21.7283 35.3809 19.7357 35.3799Z" fill="url(#paint2_linear_2337_152)"/>
<path d="M28.2905 7.30319L32.1275 4.43689C28.6204 1.55876 24.2426 -0.00798939 19.7297 3.06379e-05V4.61908C22.7856 4.61524 25.7706 5.55117 28.2905 7.30319Z" fill="url(#paint3_linear_2337_152)"/>
<path d="M39.4699 20.0002C39.4724 18.7986 39.3687 17.599 39.1599 16.4161L34.9122 19.5887C34.9122 19.7254 34.9122 19.862 34.9122 20.0002C34.9133 22.1492 34.4688 24.2744 33.6076 26.2382C32.7463 28.2019 31.4875 29.9603 29.9128 31.3994L32.9766 34.8312C35.0239 32.9581 36.6598 30.6699 37.7784 28.115C38.8971 25.5601 39.4733 22.7953 39.4699 20.0002Z" fill="#21A038"/>
<path d="M19.7357 35.3803C17.6151 35.381 15.518 34.9304 13.5801 34.0576C11.6423 33.1848 9.90686 31.9092 8.48632 30.3136L5.10175 33.4171C6.94972 35.4922 9.20742 37.1504 11.7285 38.2844C14.2495 39.4183 16.9775 40.0026 19.7357 39.9993V35.3803Z" fill="url(#paint4_linear_2337_152)"/>
<path d="M9.55867 8.60004L6.49642 5.16833C4.44858 7.04105 2.81201 9.32908 1.69285 11.884C0.573697 14.439 -0.0030512 17.2038 1.21392e-05 19.9992H4.55928C4.55834 17.8504 5.0029 15.7251 5.86412 13.7614C6.72535 11.7977 7.98405 10.0393 9.55867 8.60004Z" fill="url(#paint5_linear_2337_152)"/>
<defs>
<linearGradient id="paint0_linear_2337_152" x1="6.70253" y1="33.5629" x2="1.60155" y2="19.0128" gradientUnits="userSpaceOnUse">
<stop offset="0.14" stop-color="#F1E813"/>
<stop offset="0.3" stop-color="#E6E418"/>
<stop offset="0.58" stop-color="#C9DA26"/>
<stop offset="0.89" stop-color="#A2CC39"/>
</linearGradient>
<linearGradient id="paint1_linear_2337_152" x1="7.08215" y1="6.67619" x2="19.9553" y2="1.83556" gradientUnits="userSpaceOnUse">
<stop offset="0.06" stop-color="#0FA7DF"/>
<stop offset="0.54" stop-color="#0098F8"/>
<stop offset="0.92" stop-color="#0290EA"/>
</linearGradient>
<linearGradient id="paint2_linear_2337_152" x1="18.448" y1="37.2112" x2="32.975" y2="33.973" gradientUnits="userSpaceOnUse">
<stop offset="0.12" stop-color="#A2CC39"/>
<stop offset="0.28" stop-color="#86C239"/>
<stop offset="0.87" stop-color="#219F38"/>
</linearGradient>
<linearGradient id="paint3_linear_2337_152" x1="18.7814" y1="1.54704" x2="31.2138" y2="5.3327" gradientUnits="userSpaceOnUse">
<stop offset="0.06" stop-color="#0290EA"/>
<stop offset="0.79" stop-color="#0C89CA"/>
</linearGradient>
<linearGradient id="paint4_linear_2337_152" x1="6.24543" y1="32.8548" x2="19.7904" y2="37.8498" gradientUnits="userSpaceOnUse">
<stop offset="0.13" stop-color="#F1E813"/>
<stop offset="0.3" stop-color="#EAE616"/>
<stop offset="0.53" stop-color="#D8DF1F"/>
<stop offset="0.8" stop-color="#BAD52D"/>
<stop offset="0.98" stop-color="#A2CC39"/>
</linearGradient>
<linearGradient id="paint5_linear_2337_152" x1="1.6985" y1="20.5583" x2="7.24536" y2="6.32055" gradientUnits="userSpaceOnUse">
<stop offset="0.07" stop-color="#A2CC39"/>
<stop offset="0.26" stop-color="#81C45E"/>
<stop offset="0.92" stop-color="#0FA7DF"/>
</linearGradient>
</defs>
</svg>
