<svg width="39" height="40" viewBox="0 0 39 40" fill="none" xmlns="http://www.w3.org/2000/svg">
<path fill-rule="evenodd" clip-rule="evenodd" d="M19.3107 0C19.8434 0 20.41 0.0220648 21.0372 0.0724987V3.9102C21.0372 20.8197 21.6819 28.1295 24.1815 39.4015C20.9876 40.2005 17.5999 40.2005 14.4115 39.3952C16.9277 28.0413 17.577 20.7315 17.577 3.9102V0.0724987C18.2106 0.0220648 18.7772 0 19.3107 0ZM38.6087 21.4313C38.6087 14.8544 35.0263 9.0718 29.6441 5.77783L29.7166 10.2428C32.916 12.993 34.9428 16.9931 34.9428 21.4313C34.9428 23.4581 34.5094 25.3919 33.749 27.1587C31.4329 24.9585 29.7828 22.3706 28.756 19.3146C27.5172 15.6156 27.228 11.5651 27.1839 6.6163L27.1894 4.48862L26.7355 4.29949L26.3194 4.13873C25.4778 3.82352 24.611 3.56347 23.7292 3.36646L23.7347 6.60999C23.8513 23.6976 26.8119 30.741 31.2162 36.035C35.7206 32.6355 38.6087 27.3588 38.6087 21.4313ZM14.8796 6.61315L14.8851 3.36962C13.6967 3.63597 12.536 4.01422 11.4249 4.49177L11.4304 6.61945C11.3807 11.5635 11.097 15.6187 9.85825 19.3178C8.83697 22.3737 7.18132 24.9569 4.8653 27.1618C4.10485 25.395 3.67143 23.4612 3.67143 21.4344C3.67143 16.9899 5.69273 12.9962 8.89764 10.246L8.97014 5.78099C3.58238 9.06865 0 14.8512 0 21.4344C0 27.362 2.89365 32.6386 7.39251 36.0382C11.8078 30.7505 14.7629 23.7008 14.8796 6.61315Z" fill="#3B175C"/>
</svg>
