<svg width="22" height="22" viewBox="0 0 22 22" fill="none" xmlns="http://www.w3.org/2000/svg">
<path fill-rule="evenodd" clip-rule="evenodd" d="M2.73797 8.25H1.20312C0.884036 8.25 0.578016 8.37676 0.352387 8.60239C0.126757 8.82802 0 9.13404 0 9.45312V12.5469C0 12.866 0.126757 13.172 0.352387 13.3976C0.578016 13.6232 0.884036 13.75 1.20312 13.75H2.73625C2.77199 13.7503 2.80676 13.7617 2.83571 13.7826C2.86467 13.8036 2.88638 13.833 2.89781 13.8669C2.99766 14.1506 3.1124 14.4288 3.24156 14.7005C3.25768 14.7325 3.26336 14.7688 3.25782 14.8043C3.25227 14.8397 3.23577 14.8725 3.21062 14.8981L2.12609 15.9827C2.01436 16.0944 1.92573 16.227 1.86526 16.373C1.80479 16.519 1.77366 16.6754 1.77366 16.8334C1.77366 16.9914 1.80479 17.1479 1.86526 17.2939C1.92573 17.4399 2.01436 17.5725 2.12609 17.6842L4.31406 19.8722C4.42579 19.9839 4.55842 20.0726 4.7044 20.133C4.85038 20.1935 5.00684 20.2246 5.16484 20.2246C5.32285 20.2246 5.47931 20.1935 5.62529 20.133C5.77127 20.0726 5.9039 19.9839 6.01563 19.8722L7.10187 18.7877C7.12747 18.7625 7.16029 18.746 7.19574 18.7405C7.23118 18.7349 7.26748 18.7406 7.29953 18.7567C7.57118 18.8858 7.84943 19.0006 8.13313 19.1005C8.16699 19.1119 8.19644 19.1336 8.21739 19.1626C8.23833 19.1915 8.24973 19.2263 8.25 19.262V20.7969C8.25 21.116 8.37676 21.422 8.60239 21.6476C8.82802 21.8732 9.13404 22 9.45312 22H12.5469C12.866 22 13.172 21.8732 13.3976 21.6476C13.6232 21.422 13.75 21.116 13.75 20.7969V19.2638C13.7503 19.228 13.7617 19.1932 13.7826 19.1643C13.8036 19.1353 13.833 19.1136 13.8669 19.1022C14.1506 19.0023 14.4288 18.8876 14.7005 18.7584C14.7325 18.7423 14.7688 18.7366 14.8043 18.7422C14.8397 18.7477 14.8725 18.7642 14.8981 18.7894L15.9827 19.8739C16.0944 19.9856 16.227 20.0743 16.373 20.1347C16.519 20.1952 16.6754 20.2263 16.8334 20.2263C16.9914 20.2263 17.1479 20.1952 17.2939 20.1347C17.4399 20.0743 17.5725 19.9856 17.6842 19.8739L19.8722 17.6859C19.9839 17.5742 20.0726 17.4416 20.133 17.2956C20.1935 17.1496 20.2246 16.9932 20.2246 16.8352C20.2246 16.6771 20.1935 16.5207 20.133 16.3747C20.0726 16.2287 19.9839 16.0961 19.8722 15.9844L18.7877 14.8981C18.7625 14.8725 18.746 14.8397 18.7405 14.8043C18.7349 14.7688 18.7406 14.7325 18.7567 14.7005C18.8858 14.4288 19.0006 14.1506 19.1005 13.8669C19.1119 13.833 19.1336 13.8036 19.1626 13.7826C19.1915 13.7617 19.2263 13.7503 19.262 13.75H20.7969C21.116 13.75 21.422 13.6232 21.6476 13.3976C21.8732 13.172 22 12.866 22 12.5469V9.45312C22 9.13404 21.8732 8.82802 21.6476 8.60239C21.422 8.37676 21.116 8.25 20.7969 8.25H19.262C19.2263 8.24973 19.1915 8.23834 19.1626 8.21739C19.1336 8.19644 19.1119 8.16699 19.1005 8.13313C19.0006 7.84941 18.8859 7.57116 18.7567 7.29953C18.7406 7.26748 18.7349 7.23118 18.7405 7.19574C18.746 7.16029 18.7625 7.12747 18.7877 7.10187L19.8722 6.01734C19.9839 5.90562 20.0726 5.77298 20.133 5.62701C20.1935 5.48103 20.2246 5.32457 20.2246 5.16656C20.2246 5.00856 20.1935 4.8521 20.133 4.70612C20.0726 4.56014 19.9839 4.4275 19.8722 4.31578L17.6859 2.12781C17.5742 2.01608 17.4416 1.92745 17.2956 1.86698C17.1496 1.80651 16.9932 1.77538 16.8352 1.77538C16.6771 1.77538 16.5207 1.80651 16.3747 1.86698C16.2287 1.92745 16.0961 2.01608 15.9844 2.12781L14.8981 3.21234C14.8725 3.23748 14.8397 3.25399 14.8043 3.25953C14.7688 3.26508 14.7325 3.2594 14.7005 3.24328C14.4288 3.11416 14.1506 2.99942 13.8669 2.89953C13.833 2.8881 13.8036 2.86639 13.7826 2.83743C13.7617 2.80847 13.7503 2.77371 13.75 2.73797V1.20312C13.75 0.884036 13.6232 0.578017 13.3976 0.352387C13.172 0.126757 12.866 0 12.5469 0H9.45312C9.13404 0 8.82802 0.126757 8.60239 0.352387C8.37676 0.578017 8.25 0.884036 8.25 1.20312V2.73797C8.24973 2.77371 8.23833 2.80847 8.21739 2.83743C8.19644 2.86639 8.16699 2.8881 8.13313 2.89953C7.84941 2.99938 7.57116 3.11412 7.29953 3.24328C7.26748 3.2594 7.23118 3.26508 7.19574 3.25953C7.16029 3.25399 7.12747 3.23748 7.10187 3.21234L6.01734 2.12781C5.90562 2.01608 5.77299 1.92745 5.62701 1.86698C5.48103 1.80651 5.32457 1.77538 5.16656 1.77538C5.00856 1.77538 4.8521 1.80651 4.70612 1.86698C4.56014 1.92745 4.42751 2.01608 4.31578 2.12781L2.12781 4.31406C2.01608 4.42579 1.92745 4.55842 1.86698 4.7044C1.80651 4.85038 1.77538 5.00684 1.77538 5.16484C1.77538 5.32285 1.80651 5.47931 1.86698 5.62529C1.92745 5.77127 2.01608 5.9039 2.12781 6.01562L3.21234 7.10187C3.23749 7.12747 3.25398 7.16029 3.25953 7.19574C3.26508 7.23118 3.2594 7.26748 3.24328 7.29953C3.11416 7.57118 2.99942 7.84942 2.89953 8.13313C2.8881 8.16699 2.86639 8.19644 2.83743 8.21739C2.80848 8.23834 2.77371 8.24973 2.73797 8.25ZM13.3863 7.42696C12.6797 6.95482 11.849 6.70281 10.9991 6.70281C9.85952 6.70281 8.76659 7.15552 7.96077 7.96134C7.15495 8.76716 6.70225 9.86008 6.70225 10.9997C6.70225 11.8495 6.95425 12.6803 7.4264 13.3869C7.89855 14.0935 8.56963 14.6443 9.35478 14.9695C10.1399 15.2947 11.0039 15.3798 11.8374 15.214C12.6709 15.0482 13.4365 14.639 14.0375 14.038C14.6384 13.4371 15.0476 12.6715 15.2134 11.838C15.3792 11.0045 15.2941 10.1405 14.9689 9.35534C14.6437 8.57019 14.093 7.89911 13.3863 7.42696Z" fill="#404040" fill-opacity="0.5"/>
</svg>
