<svg width="101" height="100" viewBox="0 0 101 100" fill="none" xmlns="http://www.w3.org/2000/svg">
<path d="M84.7095 47.4451C86.9087 47.3944 89.1079 47.5462 91.307 47.9004C100.206 49.6707 102.354 58.0671 100.257 64.8448C94.836 82.2445 82.9706 93.3725 65.2746 98.0259C42.4645 103.994 19.245 96.4073 6.71463 75.5679C-4.43475 57.0048 -1.41723 31.4616 13.6703 15.8826C23.8991 5.26078 36.4295 0.0509772 51.0056 0.000382931C65.2746 -0.0501833 77.7538 4.90671 87.8293 15.1745C90.2842 17.7037 90.5911 19.6762 88.9544 21.5984C87.1643 23.7226 84.3004 23.5709 81.743 21.5984C80.825 20.8894 79.9163 20.1591 79.0061 19.4276C76.215 17.1844 73.4108 14.9308 70.2868 13.2524C54.0742 4.4515 34.2812 7.48629 21.1373 20.435C11.5221 29.944 7.37965 41.4765 8.76037 54.6781C11.062 75.7196 27.5302 87.8085 42.8736 90.7926C64.0473 94.8897 83.84 83.0033 91.5117 64.7437C93.7619 59.3315 91.6652 55.9932 85.6301 55.9932C68.9504 55.9932 52.2707 56.0433 35.5909 56.0934L35.3041 56.0943C28.2974 56.145 22.109 50.6317 22.2115 43.7022C22.2624 39.0992 24.0013 35.1541 27.1724 32.7767C29.9769 30.6964 33.1249 30.4592 34.503 30.3553C34.5322 30.3531 34.5606 30.351 34.5881 30.3489C42.5667 29.8936 62.6663 29.7419 89.5169 30.1465H92.5856C95.7567 30.1465 98.0581 31.8662 98.0068 34.1929C97.9559 36.722 95.6542 38.5935 92.4834 38.5935C83.5842 38.5935 74.6851 38.6062 65.786 38.6188C56.8869 38.6315 47.9879 38.6442 39.089 38.6442C38.7961 38.6442 38.5 38.641 38.2023 38.6379C37.3045 38.6283 36.3922 38.6187 35.5088 38.6946C33.054 38.8463 31.1617 40.6674 31.1104 42.7917C31.0592 45.0677 32.9005 47.0405 35.4066 47.2933C36.5829 47.3944 37.8102 47.4451 38.9865 47.4451C44.0669 47.4451 49.1473 47.4395 54.2277 47.4338C64.3883 47.4226 74.5489 47.4113 84.7095 47.4451Z" fill="#F4F4F4"/>
<path d="M26.8143 73.4937H78.521C81.1293 73.4937 83.2263 71.3691 83.2263 68.8403C83.2263 66.2607 81.1293 64.1868 78.521 64.1868H26.8143C24.206 64.1868 22.109 66.2607 22.109 68.8403C22.109 71.4198 24.206 73.4937 26.8143 73.4937Z" fill="#F4F4F4"/>
</svg>
